# AST/ASF file generated using VICON BodyLanguage
# -----------------------------------------------
:version 1.10
:name VICON
:units
  mass 1.0
  length 0.45
  angle deg
:documentation
   .ast/.asf automatically generated from VICON data using
   VICON BodyBuilder and BodyLanguage model FoxedUp or BRILLIANT.MOD
:root
   order TX TY TZ RX RY RZ
   axis XYZ
   position 0 0 0  
   orientation 0 0 0 
:bonedata
  begin
     id 1 
     name lhipjoint
     direction 0.561001 -0.76473 0.316963 
     length 2.4722 
     axis 0 0 0  XYZ
  end
  begin
     id 2 
     name lfemur
     direction 0.34202 -0.939693 0  
     length 7.59403  
     axis 0 0 20  XYZ
    dof rx ry rz
    limits (-160.0 20.0)
           (-70.0 70.0)
           (-60.0 70.0)
  end
  begin
     id 3 
     name ltibia
     direction 0.34202 -0.939693 0   
     length 7.89655   
     axis 0 0 20   XYZ
    dof rx
    limits (-10.0 170.0)
  end
  begin
     id 4 
     name lfoot
     direction 0.061296 -0.168409 0.98381   
     length 2.73287   
     axis -90 7.62852e-016 20   XYZ
    dof rx rz
    limits (-45.0 90.0)
           (-70.0 20.0)
  end
  begin
     id 5 
     name ltoes
     direction 1.53547e-011 -4.21984e-011 1   
     length 1.37057   
     axis -90 7.62852e-016 20   XYZ
    dof rx
    limits (-90.0 20.0)
  end
  begin
     id 6 
     name rhipjoint
     direction -0.559611 -0.765599 0.317323   
     length 2.46939  
     axis 0 0 0  XYZ 
  end
  begin
     id 7 
     name rfemur
     direction -0.34202 -0.939693 0   
     length 7.53712   
     axis 0 0 -20   XYZ
    dof rx ry rz
    limits (-160.0 20.0)
           (-70.0 70.0)
           (-70.0 60.0)
  end
  begin
     id 8 
     name rtibia
     direction -0.34202 -0.939693 0   
     length 8.12549   
     axis 0 0 -20   XYZ
    dof rx
    limits (-10.0 170.0)
 end
 begin
     id 9 
     name rfoot
     direction -0.066984 -0.184037 0.980634   
     length 2.67541  
     axis -90 -7.62852e-016 -20   XYZ
    dof rx rz
    limits (-45.0 90.0)
           (-20.0 70.0)
  end
  begin
     id 10 
     name rtoes
     direction -1.53549e-011 -4.21786e-011 1   
     length 1.34085   
     axis -90 -7.62852e-016 -20   XYZ
    dof rx
    limits (-90.0 20.0)
  end
  begin
     id 11 
     name lowerback
     direction -0.0522728 0.992594 -0.109658   
     length 2.05633   
     axis 0 0 0   XYZ
    dof rx ry rz
    limits (-20.0 45.0)
           (-30.0 30.0)
           (-30.0 30.0)
  end
  begin
     id 12 
     name upperback
     direction 0.00589338 0.999977 0.00335704   
     length 2.05845   
     axis 0 0 0   XYZ
    dof rx ry rz
    limits (-20.0 45.0)
           (-30.0 30.0)
           (-30.0 30.0)
  end
  begin
     id 13 
     name thorax
     direction 0.0292928 0.998059 0.0549487   
     length 2.09281   
     axis 0 0 0   XYZ
    dof rx ry rz
    limits (-20.0 45.0)
           (-30.0 30.0)
           (-30.0 30.0)
  end
  begin
     id 14 
     name lowerneck
     direction 0.0356368 0.980775 0.191858   
     length 1.84767   
     axis 0 0 0   XYZ
    dof rx ry rz
    limits (-20.0 45.0)
           (-30.0 30.0)
           (-30.0 30.0)
  end
  begin
     id 15 
     name upperneck
     direction -0.0227605 0.98931 -0.14404   
     length 1.89582   
     axis 0 0 0   XYZ
    dof rx ry rz
    limits (-20.0 45.0)
           (-30.0 30.0)
           (-30.0 30.0)
  end
  begin
     id 16
     name head
     direction -0.00932985 0.997511 -0.0698904  
     length 1.90213  
     axis 0 0 0   XYZ
    dof rx ry rz
    limits (-20.0 45.0)
           (-30.0 30.0)
           (-30.0 30.0)
  end
  begin
     id 17 
     name lclavicle
     direction 0.873442 0.479511 0.0846686  
     length 3.41193  
     axis 0 0 0   XYZ
    dof ry rz
    limits (-20.0 10.0)
           (0.0 20.0)
  end
  begin
     id 18 
     name lhumerus
     direction 1 -4.4897e-011 -5.62117e-018   
     length 5.59864   
     axis 180 -30 -90   XYZ
    dof rx ry rz
    limits (-60.0 90.0)
           (-90.0 90.0)
           (-90.0 90.0)
  end
  begin
     id 19
     name lradius
     direction 1 -4.48966e-011 -6.26295e-027   
     length 3.59542   
     axis 180 -30 -90   XYZ
    dof rx
    limits (-10.0 170.0)
  end
  begin
     id 20
     name lwrist
     direction 1 -4.48947e-011 -1.74096e-026   
     length 1.79771   
     axis 1.04567e-014 90 90   XYZ
    dof ry
    limits (-180.0 0.0)
 end
  begin
     id 21 
     name lhand
     direction 1 -4.49085e-011 -3.48469e-026   
     length 0.572014   
     axis 2.22196e-014 90 90   XYZ
    dof rx rz
    limits (-90.0 90.0)
           (-45.0 45.0)
  end
  begin
     id 22 
     name lfingers
     direction 1 -4.48884e-011 -6.96135e-026   
     length 0.461173   
     axis 4.44383e-014 90 90   XYZ
    dof rx
    limits (0.0 90.0)
  end
  begin
     id 23
     name lthumb
     direction 0.707107 -6.34976e-011 0.707107   
     length 0.662154   
     axis -90 45 -5.4397e-014   XYZ
    dof rx rz
    limits (-45.0 45.0)
           (-45.0 45.0)
  end
  begin
     id 24 
     name rclavicle
     direction -0.890242 0.443271 0.104786   
     length 3.46753  
     axis 0 0 0   XYZ 
    dof ry rz
    limits (-10.0 20.0)
           (-20.0 0.0)
  end
  begin
     id 25 
     name rhumerus
     direction -1 -4.48963e-011 -5.41723e-018  
     length 5.8094   
     axis 180 30 90   XYZ
    dof rx ry rz
    limits (-90.0 60.0)
           (-90.0 90.0)
           (-90.0 90.0)
  end
  begin
     id 26 
     name rradius
     direction -1 -4.48958e-011 -6.51059e-027   
     length 3.66953   
     axis 180 30 90   XYZ
    dof rx
    limits (-10.0 170.0)
  end
  begin
     id 27 
     name rwrist
     direction -1 -4.48975e-011 -1.74124e-026   
     length 1.83476   
     axis 1.04567e-014 -90 -90   XYZ
    dof ry
    limits (-180.0 0.0)
  end
  begin
     id 28
     name rhand
     direction -1 -4.49013e-011 -3.48326e-026   
     length 0.57843   
     axis 2.22196e-014 -90 -90   XYZ
    dof rx rz
    limits (-90.0 90.0)
           (-45.0 45.0)
  end
  begin
     id 29
     name rfingers
     direction -1 -4.49023e-011 -6.9669e-026   
     length 0.466345   
     axis 4.44383e-014 -90 -90   XYZ
    dof rx
    limits (0.0 90.0)
  end
  begin
     id 30
     name rthumb
     direction -0.707107 -6.34926e-011 0.707107   
     length 0.669581   
     axis -90 -45 5.4397e-014   XYZ
    dof rx rz
    limits (-45.0 45.0)
           (-45.0 45.0)
  end
:hierarchy
  begin
    root lhipjoint rhipjoint lowerback
    lhipjoint lfemur
    lfemur ltibia
    ltibia lfoot
    lfoot ltoes
    rhipjoint rfemur
    rfemur rtibia
    rtibia rfoot
    rfoot rtoes
    lowerback upperback
    upperback thorax
    thorax lowerneck lclavicle rclavicle
    lowerneck upperneck
    upperneck head
    lclavicle lhumerus
    lhumerus lradius
    lradius lwrist
    lwrist lhand lthumb
    lhand lfingers
    rclavicle rhumerus
    rhumerus rradius
    rradius rwrist
    rwrist rhand rthumb
    rhand rfingers
  end

#!OML:ASF H:\SkateBoarding\Project 1\Capture day 1\Session 1\Skater.ASF
:FULLY-SPECIFIED
:DEGREES
16
root 22.0461 19.6234 -15.8154 -43.8661 85.0089 -52.636
lowerback 11.1856 -2.54357 -6.46785
upperback 0.489318 -4.17019 -0.166772
thorax -5.30694 -1.87933 4.0936
lowerneck -14.7489 -4.59364 1.27434
upperneck 42.9917 -7.59125 4.12658
head 19.0863 -1.67203 0.455875
rclavicle 4.65156e-014 1.43125e-014
rhumerus -44.8314 17.639 -89.4757
rradius 53.9719
rwrist -10.3533
rhand -33.2771 5.7089
rfingers 7.12502
rthumb -6.48169 -24.1719
lclavicle 4.65156e-014 1.43125e-014
lhumerus -17.1009 -16.9231 86.1774
lradius 48.8092
lwrist 26.9517
lhand -28.055 6.27241
lfingers 7.12502
lthumb -1.43906 36.2473
rfemur -25.0051 3.1169 22.1445
rtibia 38.7226
rfoot -28.0881 0.970172
rtoes -0.71029
lfemur -22.8951 -16.232 -3.10103
ltibia 35.6504
lfoot -35.1461 11.7037
ltoes -23.3284
17
root 22.0108 19.6256 -15.514 -41.4816 84.7579 -50.3095
lowerback 11.2143 -2.4748 -6.35249
upperback 0.458998 -4.0677 -0.14474
thorax -5.3731 -1.82868 4.04121
lowerneck -14.6399 -4.57067 1.31613
upperneck 43.0197 -7.53276 4.06875
head 19.064 -1.65035 0.435295
rclavicle -3.02153e-014 -1.74931e-014
rhumerus -44.3026 17.7235 -89.3228
rradius 53.605
rwrist -10.2787
rhand -33.2651 5.69562
rfingers 7.12502
rthumb -6.47019 -24.1856
lclavicle -3.02153e-014 -1.74931e-014
lhumerus -17.3471 -16.8048 85.9689
lradius 48.3659
lwrist 27.0773
lhand -27.8565 6.55025
lfingers 7.12502
lthumb -1.24733 36.5264
rfemur -25.0707 3.29191 22.1308
rtibia 38.4974
rfoot -27.9802 0.91858
rtoes -0.901485
lfemur -22.9502 -16.2534 -3.0702
ltibia 35.682
lfoot -35.4679 11.8431
ltoes -23.0654
18
root 21.9757 19.627 -15.2141 -39.2672 84.493 -48.1456
lowerback 11.2353 -2.4158 -6.23699
upperback 0.431146 -3.97739 -0.124323
thorax -5.43079 -1.78452 3.98792
lowerneck -14.5249 -4.54092 1.3601
upperneck 43.0437 -7.46511 4.01196
head 19.0372 -1.62512 0.416546
rclavicle -8.22969e-014 -1.59028e-015
rhumerus -43.7479 17.7912 -89.158
rradius 53.2627
rwrist -10.2208
rhand -33.2625 5.67666
rfingers 7.12502
rthumb -6.46767 -24.2046
lclavicle -8.22969e-014 -1.59028e-015
lhumerus -17.5797 -16.6913 85.7391
lradius 47.9473
lwrist 27.1708
lhand -27.6603 6.81742
lfingers 7.12502
lthumb -1.05783 36.7945
rfemur -25.1065 3.4324 22.1125
rtibia 38.2396
rfoot -27.8487 0.928747
rtoes -1.05209
lfemur -23.0102 -16.28 -3.04572
ltibia 35.7446
lfoot -35.8058 11.983
ltoes -22.8283
19
root 21.9413 19.6275 -14.9156 -37.3234 84.2195 -46.237
lowerback 11.2533 -2.36903 -6.11197
upperback 0.408778 -3.90161 -0.107532
thorax -5.47992 -1.74828 3.92696
lowerneck -14.4033 -4.50395 1.40754
upperneck 43.0642 -7.38937 3.95991
head 19.0065 -1.59591 0.401015
rclavicle 3.53837e-014 2.22639e-014
rhumerus -43.1721 17.8371 -88.9875
rradius 52.9406
rwrist -10.1842
rhand -33.2789 5.65208
rfingers 7.12502
rthumb -6.48351 -24.2287
lclavicle 3.53837e-014 2.22639e-014
lhumerus -17.7989 -16.5851 85.4859
lradius 47.5514
lwrist 27.2296
lhand -27.4762 7.0611
lfingers 7.12502
lthumb -0.880044 37.039
rfemur -25.0944 3.53831 22.0965
rtibia 37.9431
rfoot -27.7088 0.997395
rtoes -1.14905
lfemur -23.0634 -16.3087 -3.02855
ltibia 35.8296
lfoot -36.1428 12.1145
ltoes -22.6111
20
root 21.9076 19.6272 -14.6183 -35.5201 83.9428 -44.4555
lowerback 11.2685 -2.33221 -5.99074
upperback 0.3882 -3.83933 -0.0954947
thorax -5.52398 -1.71891 3.86466
lowerneck -14.2729 -4.46039 1.45402
upperneck 43.0847 -7.30446 3.91224
head 18.9735 -1.56287 0.389653
rclavicle 5.20816e-014 1.11319e-014
rhumerus -42.5748 17.8507 -88.8107
rradius 52.6247
rwrist -10.1637
rhand -33.3184 5.63795
rfingers 7.12502
rthumb -6.52161 -24.2416
lclavicle 5.20816e-014 1.11319e-014
lhumerus -18.0087 -16.4763 85.213
lradius 47.1795
lwrist 27.2784
lhand -27.2906 7.26642
lfingers 7.12502
lthumb -0.700751 37.245
rfemur -25.0374 3.60578 22.0709
rtibia 37.6087
rfoot -27.5597 1.13875
rtoes -1.1683
lfemur -23.1042 -16.3266 -3.03425
ltibia 35.9249
lfoot -36.4698 12.2616
ltoes -22.4911
